<?xml version="1.0" encoding="UTF-8"?>
<svg xmlns="http://www.w3.org/2000/svg" xmlns:xlink="http://www.w3.org/1999/xlink" width="50px" height="50px" viewBox="0 0 50 50" version="1.1">
<defs>
<radialGradient id="radial0" gradientUnits="userSpaceOnUse" cx="0" cy="0" fx="0" fy="0" r="1" gradientTransform="matrix(22.656275,-32.812482,32.812482,22.656275,18.75,35.9375)">
<stop offset="0" style="stop-color:rgb(69.411765%,20.784314%,53.72549%);stop-opacity:1;"/>
<stop offset="0.79309" style="stop-color:rgb(77.647059%,18.431373%,58.039216%);stop-opacity:1;"/>
<stop offset="1" style="stop-color:rgb(54.117647%,22.745098%,78.431373%);stop-opacity:1;"/>
</radialGradient>
<radialGradient id="radial1" gradientUnits="userSpaceOnUse" cx="0" cy="0" fx="0" fy="0" r="1" gradientTransform="matrix(14.843722,-32.031182,32.031182,14.843722,17.1875,48.4375)">
<stop offset="0" style="stop-color:rgb(87.843137%,90.980392%,71.764706%);stop-opacity:1;"/>
<stop offset="0.444662" style="stop-color:rgb(98.431373%,54.117647%,18.039216%);stop-opacity:1;"/>
<stop offset="0.71474" style="stop-color:rgb(88.627451%,25.882353%,36.078431%);stop-opacity:1;"/>
<stop offset="1" style="stop-color:rgb(88.627451%,25.882353%,36.078431%);stop-opacity:0;"/>
</radialGradient>
<radialGradient id="radial2" gradientUnits="userSpaceOnUse" cx="0" cy="0" fx="0" fy="0" r="1" gradientTransform="matrix(60.156292,-8.593754,1.838115,12.866807,0.781253,4.6875)">
<stop offset="0.156701" style="stop-color:rgb(25.098039%,41.568627%,86.27451%);stop-opacity:1;"/>
<stop offset="0.467799" style="stop-color:rgb(41.568627%,27.058824%,74.509804%);stop-opacity:1;"/>
<stop offset="1" style="stop-color:rgb(41.568627%,27.058824%,74.509804%);stop-opacity:0;"/>
</radialGradient>
</defs>
<g id="surface1">
<path style=" stroke:none;fill-rule:nonzero;fill:url(#radial0);" d="M 12.5 3.125 L 37.5 3.125 C 42.675781 3.125 46.875 7.324219 46.875 12.5 L 46.875 37.5 C 46.875 42.675781 42.675781 46.875 37.5 46.875 L 12.5 46.875 C 7.324219 46.875 3.125 42.675781 3.125 37.5 L 3.125 12.5 C 3.125 7.324219 7.324219 3.125 12.5 3.125 Z M 12.5 3.125 "/>
<path style=" stroke:none;fill-rule:nonzero;fill:url(#radial1);" d="M 12.5 3.125 L 37.5 3.125 C 42.675781 3.125 46.875 7.324219 46.875 12.5 L 46.875 37.5 C 46.875 42.675781 42.675781 46.875 37.5 46.875 L 12.5 46.875 C 7.324219 46.875 3.125 42.675781 3.125 37.5 L 3.125 12.5 C 3.125 7.324219 7.324219 3.125 12.5 3.125 Z M 12.5 3.125 "/>
<path style=" stroke:none;fill-rule:nonzero;fill:url(#radial2);" d="M 12.5 3.125 L 37.5 3.125 C 42.675781 3.125 46.875 7.324219 46.875 12.5 L 46.875 37.5 C 46.875 42.675781 42.675781 46.875 37.5 46.875 L 12.5 46.875 C 7.324219 46.875 3.125 42.675781 3.125 37.5 L 3.125 12.5 C 3.125 7.324219 7.324219 3.125 12.5 3.125 Z M 12.5 3.125 "/>
<path style=" stroke:none;fill-rule:nonzero;fill:rgb(100%,100%,100%);fill-opacity:1;" d="M 35.9375 16.40625 C 35.9375 17.699219 34.886719 18.75 33.59375 18.75 C 32.300781 18.75 31.25 17.699219 31.25 16.40625 C 31.25 15.113281 32.300781 14.0625 33.59375 14.0625 C 34.886719 14.0625 35.9375 15.113281 35.9375 16.40625 Z M 35.9375 16.40625 "/>
<path style=" stroke:none;fill-rule:evenodd;fill:rgb(100%,100%,100%);fill-opacity:1;" d="M 25 32.8125 C 29.316406 32.8125 32.8125 29.316406 32.8125 25 C 32.8125 20.683594 29.316406 17.1875 25 17.1875 C 20.683594 17.1875 17.1875 20.683594 17.1875 25 C 17.1875 29.316406 20.683594 32.8125 25 32.8125 Z M 25 29.6875 C 27.589844 29.6875 29.6875 27.589844 29.6875 25 C 29.6875 22.410156 27.589844 20.3125 25 20.3125 C 22.410156 20.3125 20.3125 22.410156 20.3125 25 C 20.3125 27.589844 22.410156 29.6875 25 29.6875 Z M 25 29.6875 "/>
<path style=" stroke:none;fill-rule:evenodd;fill:rgb(100%,100%,100%);fill-opacity:1;" d="M 9.375 24.375 C 9.375 19.125 9.375 16.5 10.398438 14.492188 C 11.296875 12.730469 12.730469 11.296875 14.492188 10.398438 C 16.5 9.375 19.125 9.375 24.375 9.375 L 25.625 9.375 C 30.875 9.375 33.5 9.375 35.507812 10.398438 C 37.269531 11.296875 38.703125 12.730469 39.601562 14.492188 C 40.625 16.5 40.625 19.125 40.625 24.375 L 40.625 25.625 C 40.625 30.875 40.625 33.5 39.601562 35.507812 C 38.703125 37.269531 37.269531 38.703125 35.507812 39.601562 C 33.5 40.625 30.875 40.625 25.625 40.625 L 24.375 40.625 C 19.125 40.625 16.5 40.625 14.492188 39.601562 C 12.730469 38.703125 11.296875 37.269531 10.398438 35.507812 C 9.375 33.5 9.375 30.875 9.375 25.625 Z M 24.375 12.5 L 25.625 12.5 C 28.300781 12.5 30.121094 12.503906 31.527344 12.617188 C 32.898438 12.730469 33.597656 12.933594 34.085938 13.179688 C 35.261719 13.78125 36.21875 14.738281 36.820312 15.914062 C 37.066406 16.402344 37.269531 17.101562 37.382812 18.472656 C 37.496094 19.878906 37.5 21.699219 37.5 24.375 L 37.5 25.625 C 37.5 28.300781 37.496094 30.121094 37.382812 31.527344 C 37.269531 32.898438 37.066406 33.597656 36.820312 34.085938 C 36.21875 35.261719 35.261719 36.21875 34.085938 36.820312 C 33.597656 37.066406 32.898438 37.269531 31.527344 37.382812 C 30.121094 37.496094 28.300781 37.5 25.625 37.5 L 24.375 37.5 C 21.699219 37.5 19.878906 37.496094 18.472656 37.382812 C 17.101562 37.269531 16.402344 37.066406 15.914062 36.820312 C 14.738281 36.21875 13.78125 35.261719 13.179688 34.085938 C 12.933594 33.597656 12.730469 32.898438 12.617188 31.527344 C 12.503906 30.121094 12.5 28.300781 12.5 25.625 L 12.5 24.375 C 12.5 21.699219 12.503906 19.878906 12.617188 18.472656 C 12.730469 17.101562 12.933594 16.402344 13.179688 15.914062 C 13.78125 14.738281 14.738281 13.78125 15.914062 13.179688 C 16.402344 12.933594 17.101562 12.730469 18.472656 12.617188 C 19.878906 12.503906 21.699219 12.5 24.375 12.5 Z M 24.375 12.5 "/>
</g>
</svg>
