<?xml version="1.0" encoding="UTF-8"?>
<svg xmlns="http://www.w3.org/2000/svg" xmlns:xlink="http://www.w3.org/1999/xlink" width="50px" height="50px" viewBox="0 0 50 50" version="1.1">
<g id="surface1">
<path style=" stroke:none;fill-rule:nonzero;fill:rgb(11.372549%,63.137257%,94.901961%);fill-opacity:1;" d="M 7.5 0 L 42.5 0 C 46.640625 0 50 3.359375 50 7.5 L 50 42.5 C 50 46.640625 46.640625 50 42.5 50 L 7.5 50 C 3.359375 50 0 46.640625 0 42.5 L 0 7.5 C 0 3.359375 3.359375 0 7.5 0 Z M 7.5 0 "/>
<path style=" stroke:none;fill-rule:nonzero;fill:rgb(100%,100%,100%);fill-opacity:1;" d="M 42.675781 14.84375 C 41.519531 15.613281 40.160156 16.019531 38.769531 16.015625 C 40.253906 15.140625 41.367188 13.75 41.894531 12.109375 C 40.664062 13.148438 39.113281 13.734375 37.5 13.769531 C 35.316406 11.535156 31.921875 11.007812 29.164062 12.476562 C 26.40625 13.945312 24.949219 17.058594 25.585938 20.117188 C 20.054688 19.824219 14.90625 17.199219 11.425781 12.890625 C 9.679688 16.046875 10.609375 20.015625 13.574219 22.070312 C 12.492188 22.085938 11.425781 21.851562 10.449219 21.386719 C 10.503906 24.625 12.761719 27.40625 15.917969 28.125 C 14.898438 28.390625 13.828125 28.425781 12.792969 28.222656 C 13.707031 31.078125 16.335938 33.039062 19.335938 33.105469 C 16.246094 34.980469 12.695312 35.960938 9.082031 35.9375 C 15.253906 39.96875 23.171875 40.179688 29.550781 36.484375 C 35.929688 32.789062 39.683594 25.816406 39.257812 18.457031 C 40.546875 17.402344 41.695312 16.1875 42.675781 14.84375 "/>
</g>
</svg>
